<?xml version="1.0" encoding="UTF-8"?>
<svg xmlns="http://www.w3.org/2000/svg" viewBox="0 0 393 409">
  <defs>
    <style>
      .cls-1 {
        mix-blend-mode: multiply;
        opacity: .5;
      }

      .cls-1, .cls-2 {
        fill: #413f6e;
      }

      .cls-1, .cls-2, .cls-3 {
        stroke-width: 0px;
      }

      .cls-4 {
        isolation: isolate;
      }

      .cls-3 {
        fill: #fbe5bd;
      }
    </style>
  </defs>
  <g class="cls-4">
    <g id="Capa_2" data-name="Capa 2">
      <g id="Layer_1" data-name="Layer 1">
        <polygon class="cls-1" points="393 409 13 409 26.33 27 357 13 393 409"/>
        <polygon class="cls-2" points="380 396 0 396 13.33 14 344 0 380 396"/>
        <path class="cls-3" d="M240.27,239.52h-114.13l-13.38,31.76c-8.81,21.04-13.22,33.93-13.22,38.67,0,3.03.82,5.2,2.47,6.51,1.64,1.32,5.82,2.37,12.53,3.16l18.94,2.17v12.43c-12.63-.92-26.83-1.38-42.61-1.38-18.94,0-35.58.46-49.91,1.38v-12.43l5.92-.2c9.2-.26,15.16-1.21,17.85-2.86,2.69-1.64,5.55-5.69,8.58-12.13,9.34-18.94,18.87-39.39,28.61-61.36l54.25-122.91c14.47-32.62,24.33-56.29,29.59-71.02h13.41l99.83,232.2c6.71,15.78,11.18,25.29,13.42,28.51,2.23,3.22,4.8,5.52,7.69,6.9,2.89,1.38,9.4,2.34,19.53,2.86v12.43c-17.1-.92-33.41-1.38-48.93-1.38-14.47,0-33.74.46-57.8,1.38v-12.43l19.53-1.18c6.97-.52,11.11-1.25,12.43-2.17,1.97-1.45,2.96-3.29,2.96-5.52,0-2.37-1.97-8.55-5.92-18.54l-21.64-54.85ZM133.49,223.34h99.39l-49.66-118.52-49.73,118.52Z"/>
      </g>
    </g>
  </g>
</svg>