<?xml version="1.0" encoding="UTF-8"?>
<svg xmlns="http://www.w3.org/2000/svg" viewBox="0 0 357 363">
  <defs>
    <style>
      .cls-1 {
        isolation: isolate;
      }

      .cls-2 {
        fill: #bf8a49;
      }

      .cls-2, .cls-3, .cls-4 {
        stroke-width: 0px;
      }

      .cls-3 {
        fill: #413f6e;
      }

      .cls-4 {
        fill: #231f20;
        mix-blend-mode: multiply;
        opacity: .5;
      }
    </style>
  </defs>
  <g class="cls-1">
    <g id="Capa_2" data-name="Capa 2">
      <g id="Layer_1" data-name="Layer 1">
        <polygon class="cls-4" points="341 352.06 13 363 77 13 357 13 341 352.06"/>
        <polygon class="cls-3" points="328 339.06 0 350 64 0 344 0 328 339.06"/>
        <path class="cls-2" d="M266.57,162.75c-.05,2.97-.14,5.82-.27,8.56-.13,2.74-.4,5.37-.83,7.88-1.8,10.5-4.98,19.07-9.53,25.69-.12.68.07.91.57.68.49-.22.86-.34,1.09-.34l-.06.34c-.35,2.05-.95,3.54-1.79,4.45-.04.23-.27.57-.69,1.03-.42.46-1.02,1.26-1.78,2.4-.77,1.14-1.48,2.28-2.13,3.42-3.03,4.34-6.64,8.79-10.85,13.36-2.52,2.74-5.34,5.48-8.43,8.22-3.1,2.74-5.62,4.79-7.56,6.16-1.95,1.37-3.04,2.05-3.26,2.05l-.06.34c-.39.91-1.21,1.71-2.47,2.4-2.25,1.15-3.65,1.94-4.18,2.4-.23,0-.66.17-1.29.51-.63.34-1.27.74-1.92,1.2-.65.46-1.09.68-1.32.68h-.34c-8.09,4.57-17.62,7.53-28.58,8.9-3.28.46-8.05.34-14.33-.34-6.28-.68-9.85-1.14-10.72-1.37-2.09-1.14-4.33-2.74-6.71-4.79.18,1.6-.38,2.86-1.67,3.77-.99.46-2.62-1.37-4.88-5.48-.3-.91-.55-1.48-.73-1.71-.3-.91-1.22-2.85-2.77-5.82-.19-.22-.47-.28-.83-.17-.36.12-.58.4-.66.86.07.92.51,2.34,1.32,4.28.81,1.94,1.75,3.77,2.83,5.48,1.08,1.71,2.07,3.25,2.98,4.62.91,1.37,1.34,2.17,1.3,2.4.19.23.09.46-.29.69-.38.23-.92.4-1.63.51-.7.12-1.46.17-2.26.17s-1.8-.17-2.99-.51c-1.2-.34-2.29-.97-3.27-1.88l-.23-.69c-2.16-2.05-3.3-3.42-3.41-4.11-.3-.91-.61-1.77-.93-2.57-.32-.8-.64-1.59-.96-2.4-.32-.8-.61-1.77-.87-2.91-.26-1.14-.48-2.17-.67-3.08-.19-.91-.36-1.88-.53-2.91-.17-1.03-.24-1.94-.22-2.74.02-.8.09-1.54.21-2.23.12-.69.15-1.2.09-1.54-.06-.34-.2-.51-.43-.51-.35.68-.56,1.26-.64,1.71,0,1.37-.03,2.51-.07,3.42-.04.92-.05,1.94-.01,3.08.03,1.15.17,2.34.41,3.6.24,1.26.51,2.34.81,3.25l5.7,14.73c.07.92-.23,1.37-.92,1.37-.88-.22-1.67-.91-2.39-2.05-.15-.46-.76-.23-1.83.68-1.34,1.15-3.33-1.25-5.96-7.19-.19-.23-.42-.23-.68,0-.27.23-.33.57-.18,1.03l4.79,14.04c-.85,2.28-2.84.57-5.97-5.14-.3-.91-.43-1.48-.39-1.71-.53-.91-1.72-3.65-3.56-8.22-1.85-4.56-2.96-7.07-3.33-7.53l-.41,2.4c-.08.46.45,2,1.61,4.62,1.14,2.63,2.68,6.34,4.6,11.13-1.15,0-2.39-.74-3.73-2.23-1.35-1.48-2.59-3.19-3.74-5.14-1.16-1.94-2.19-3.88-3.11-5.82-.93-1.94-1.84-4.28-2.74-7.02,1.53-.91,2.7-.74,3.51.51.81,1.26.98,2.57.52,3.94h.34c-.04.23.03.46.22.69-.67-4.11-1.11-8.22-1.31-12.33-.34-.69-.49-1.14-.45-1.37-.15-.45-.29-.97-.42-1.54-.13-.57-.16-1.08-.08-1.54-.15-.45-.38-1.14-.68-2.05-.11-2.05-.22-3.71-.35-4.97-.13-1.25-.2-2.51-.21-3.77-.02-1.25-.09-2.17-.22-2.74-.13-.57-.38-.8-.74-.69-.36.12-.66.17-.89.17-.04.23.04.4.25.51.2.12.29.29.25.51-.35.69-.54,1.15-.58,1.37-.08.46-.06,1.03.05,1.71.19.23.26.46.22.69l.1,3.42c-.08.46-.03,1.49.16,3.08.14,1.83.02,3.2-.36,4.11l.28.34.28.34c.68,0,.95.74.82,2.23-.14,1.49-.57,2.34-1.3,2.57-.95.23-1.52-.11-1.71-1.03-.19-.91-.09-1.82.3-2.74h-.68c-.46,0-.87-2.62-1.22-7.88-.36-5.25-.46-8.33-.3-9.25.04-.23.06-.68.06-1.37,0-.69.02-1.14.06-1.37l.06-.34c-.34-.68-.36-1.25-.05-1.71h.34l.18-1.03h-.34l-.39-1.71h.34c.26-.22.27-.57,0-1.03-.26-.45-.26-.8,0-1.03l.57.69.35-2.05-.28-.34c-.49-1.14.05-6.28,1.61-15.41,1.68-9.81,2.88-14.84,3.61-15.07h.34l.23-1.37c.74-4.33,2.4-9.7,4.98-16.1,2.58-6.39,4.9-11.64,6.98-15.75l3.51-6.51c.12-.69.31-1.14.58-1.37.04-.23-.04-.46-.22-.69.26-.23.51-.34.74-.34l1.04-2.05c-.42-.22-.82.12-1.2,1.03l-.06.34c-.68,0-.94-.51-.76-1.54.18-1.03.61-1.54,1.29-1.54.23,0,.3.23.23.68.19.23.43.12.74-.34-.19-.23-.25-.51-.2-.86.06-.34.11-.63.15-.86-.57-.69-.7-1.25-.39-1.71.26-.22.63-.34,1.09-.34h.34c-.11-.68.16-1.25.81-1.71.65-.45,1.01-.91,1.09-1.37l.4-.34.06-.34c.08-.45.25-.8.52-1.03.04-.22,1.44-3.77,4.21-10.62.12-.68.96-2.62,2.54-5.82,1.57-3.19,2.46-5.36,2.65-6.51.76-.46,1.51-.8,2.23-1.03-.04.23-.6,1.83-1.68,4.79-1.08,2.97-2.08,5.82-3.01,8.56-.93,2.74-1.3,4.23-1.1,4.45.45,0,1.04-.74,1.75-2.23.71-1.48,1.41-3.25,2.11-5.31.69-2.05,1.39-4.11,2.08-6.16.69-2.05,1.23-3.88,1.62-5.48.39-1.59.65-2.51.81-2.74.15-.22.25-.45.29-.68h-.69c.04-.23-.15-.45-.57-.68-.42-.23-.49-.46-.22-.69l.06-.34h.69c.04-.23.1-.57.18-1.03h1.03l.18-1.03c-.46,0-.67-.11-.63-.34l-.4.34c-1.41.23-.68-2.74,2.21-8.9l.52-1.03c.49-.22.94-1.48,1.33-3.77.39-2.28.51-3.65.36-4.11.34-.69.69-1.37,1.04-2.06l.06-.34c.26-.22.7-1.77,1.31-4.62.6-2.85,1.16-5.48,1.69-7.88.52-2.4,1.09-3.37,1.7-2.91-.23,0-.02-.57.64-1.71.04-.22.08-.45.12-.68,2.16-7.3,4.27-10.96,6.33-10.96,1.14,0,1.64.74,1.5,2.23-.14,1.49-.55,3.54-1.23,6.16-.68,2.63-1.04,4.74-1.08,6.34.15.46.54.86,1.16,1.2.63.34,1.15-.05,1.57-1.2.04-.23.21-1.25.53-3.08.31-1.82.63-3.71.97-5.65.33-1.94.63-3.02.9-3.25.3-.45.7-.8,1.2-1.03.49-.22.75-.4.77-.51.02-.11.14-.17.37-.17l.06-.34c.12-.69.62-.97,1.52-.86.89.12,1.47.06,1.74-.17.26-.22.48-1.14.64-2.74.16-1.59.69-2.4,1.61-2.4.49-.22.88-.11,1.14.34.26.46.42,1.2.47,2.23.05,1.03.05,2,.02,2.91-.04.92-.14,1.83-.3,2.74-.08.46-.1,1.26-.07,2.4-.08.46.07.92.45,1.37.22,0,.55-.57.98-1.71.51-4.33.97-7.65,1.36-9.93.39-2.28.74-3.65,1.05-4.11.53-.45,1.07-.91,1.6-1.37.26-.23.51-.34.74-.34.61-.91,1.28-.8,2,.34.34.69.29,2.28-.14,4.79-.23,1.37-.05,2.29.56,2.74.19.23.43.12.74-.34.57-.69.83-1.54.78-2.57-.05-1.03.02-2.11.21-3.25.2-1.14.52-1.71.98-1.71,1.37,0,1.89,1.6,1.58,4.8-.04.23.07.57.34,1.03.26.46.48.86.65,1.2.17.34.39.4.66.17h.34c.22,0,.37.17.43.51.05.34,0,.97-.15,1.88-.16.91-.3,1.77-.44,2.57-.14.8-.38,1.88-.73,3.25-.35,1.37-.58,2.4-.7,3.08,1.32,2.97,1.7,5.37,1.17,7.19-.04.23-.33,1.26-.87,3.08.68,0,1.55-3.42,2.61-10.27,1.05-6.85,1.61-10.39,1.65-10.62.46-1.37.94-1.48,1.43-.34-.04.23.03.46.23.68-.2,1.15-.2,1.83,0,2.06.19.23.31.51.37.86.05.34.2.51.43.51s1.05-.8,2.47-2.4c.04-.23.17-.69.41-1.37.23-.69.37-1.14.41-1.37,1.57-2.51,2.82-1.14,3.75,4.11.25,2.52.3,4.23.15,5.14-1.28,4.79-1.86,10.16-1.73,16.1-.18,5.02-3.54,17.35-10.1,36.99-1.01,4.57-3.25,10.27-6.7,17.12,8.48-6.85,17.11-11.59,25.89-14.21,8.78-2.62,16.59-3.25,23.44-1.88,6.84,1.37,12.87,3.83,18.09,7.36,5.22,3.54,9.33,7.82,12.36,12.84.56,2.05,1.09,3.65,1.58,4.79.9,2.74,1.37,4.68,1.4,5.82l-.06.34-.12.68-.4.34c.22,0,.36.23.4.68.03.46.13.92.28,1.37.15.46.34,1.03.56,1.71.23.69.38,1.43.48,2.23.09.8.23,1.66.42,2.57.19.91.31,1.83.39,2.74,1.07,7.08.69,11.3-1.14,12.67-.38-.45-.71-.57-.97-.34ZM123.74,142.89c-.08.46-.37.8-.86,1.03-.5.23-.82.12-.97-.34.54-1.82.92-2.74,1.15-2.74l.85,1.03-.18,1.03ZM108.3,249.05c-.62.91-1.37,1.03-2.28.34-.91-.69-1.42-1.37-1.53-2.05,1.71-.69,2.67-.91,2.86-.69.19.23.51,1.03.96,2.4ZM113.35,243.58c.41,1.6.9,3.42,1.46,5.48-.22-2.74-.32-4.79-.31-6.16-.42-.22-.76-.22-1.03,0-.27.23-.31.46-.12.69ZM148.64,215.49c.22,0,.72.46,1.48,1.37-.34-.68-.62-1.71-.84-3.08l-.12.68c-.27.23-.44.57-.52,1.03ZM152.47,202.14c.15-.22.34-.34.57-.34l.06-.34h-.34l-.06.34-.4.34c-.08.46-.27.92-.58,1.37h.69c-.11-.69-.09-1.14.06-1.37ZM225.59,162.07c.62-2.28,1.31-3.65,2.07-4.11l-.49-5.14-.4.34c-.3-.91-.41-1.59-.33-2.05-.19-.22-.4-.34-.63-.34-.15-.46-.09-.8.18-1.03l-.96-2.4c-.23,0-.2.46.11,1.37.15.46.11.69-.12.69-.27.23-.65.12-1.14-.34-.49-.46-.81-.97-.93-1.54-.13-.57-.06-.97.21-1.2.04-.23.15-.23.34,0,.19.23.4.34.63.34.04-.22-.04-.45-.23-.69-.19-.22-.41-.28-.66-.17-.25.12-.51.29-.77.51l.46-.69c.49-.22.66-.57.52-1.03h-.34c-.68-1.37-1.57-2.51-2.67-3.42-1.1-.91-2.64-1.59-4.61-2.05-6.5-2.06-13.72-1.88-21.66.51-7.94,2.4-14.92,7.14-20.93,14.21-.46,1.37-2.06,4.68-4.78,9.93-2.73,5.25-5.12,10.22-7.17,14.9-2.06,4.68-4.01,10.45-5.87,17.29-1.86,6.85-2.17,12.67-.94,17.47.11.68.1,1.71-.01,3.08-.12,1.37-.15,2.52-.07,3.42.07.92.5,1.71,1.3,2.4.98.91,2.18,1.6,3.59,2.06,1.4.46,2.71.8,3.93,1.03,1.21.23,2.52.29,3.91.17,1.39-.11,2.67-.28,3.86-.51,1.18-.22,2.19-.45,3.03-.68.84-.23,1.84-.46,3.03-.69h2.4c11-1.59,19.67-6.85,25.99-15.75.04-.23-.09-.46-.4-.69-.3-.23-.57-.34-.8-.34-.07-.91.12-1.37.58-1.37,1.07-.91,1.88-1.65,2.44-2.23.55-.57,1.05-1.14,1.49-1.71.44-.57.96-1.31,1.58-2.23.61-.91,1.22-1.82,1.84-2.74l.06-.34c-.42-.23-.48-.57-.17-1.03.53-.46.82-.8.86-1.03.23,0,.38-.22.46-.68.08-.46.23-.69.46-.69.61-.91,1.94-3.99,3.98-9.25,2.04-5.25,3.12-8.22,3.24-8.9l1.1-2.4c-.19-.22.17-1.31,1.07-3.25.9-1.94,1.43-3.37,1.59-4.28.04-.22.31-1.14.81-2.74ZM175.49,122.68c-.27.23-.62.91-1.04,2.05l-2.66,7.53c.57-.69,1.98-2.23,4.22-4.62,2.24-2.4,3.51-3.82,3.82-4.28.08-.45.23-1.03.46-1.71.23-.69.41-1.37.52-2.06.12-.69.33-1.25.64-1.71l1.21-3.08c1.34-2.51,2.22-4.33,2.65-5.48.85-2.28,1.75-5.59,2.73-9.93l1.86-6.85c.27-1.59.71-2.85,1.33-3.77.08-.45.26-1.2.55-2.23.29-1.03.45-1.65.49-1.88,2.53-5.48,2.66-8.22.38-8.22-.46,0-.86.68-1.21,2.05-.35,1.37-.72,2.86-1.1,4.45-.39,1.6-.7,2.4-.92,2.4l-.58,1.37-.4.34c-.46,1.37-1.21,3.71-2.23,7.02-1.03,3.31-1.9,5.77-2.63,7.36-.2,1.15-1.85,5.48-4.97,13.01l-.18,1.03c-1.65,2.97-2.63,5.37-2.94,7.19ZM181.11,229.88l1.14-.69c.99-.46,1.85-.8,2.57-1.03-.91,0-1.89.34-2.92,1.03-.76.46-2.04.57-3.83.34h-11.99l-.12.69c1.21.92,2.62,1.37,4.22,1.37.87.23,1.67.23,2.4,0,.53-.46.99-.46,1.37,0l1.09-.34,1.89-1.03-.06.34-.06.34c.22,0,.55-.23.97-.69.42-.46.82-.46,1.2,0l-.74.34,2.86-.68ZM242.45,119.6c1.63,1.15,3.22,2.52,4.78,4.11,1.55,1.6,2.68,2.69,3.38,3.25.7.57,1.09.63,1.17.17.12-.68-.26-1.82-1.13-3.42-2.27-4.11-5.87-7.07-10.8-8.9-2.36-.91-5.31-1.65-8.87-2.23-3.56-.57-7.84-.57-12.84,0-5.01.57-9.19,2-12.55,4.28-.76.46-1.89,1.03-3.38,1.71-1.49.69-2.63,1.37-3.43,2.05,10.02-3.88,18.9-5.7,26.62-5.48,7.72.23,13.41,1.71,17.05,4.45ZM223.82,150.42c.34-.69.89-.57,1.65.34.15.46.21.8.17,1.03.45,1.37.12,1.94-.98,1.71l-.84-3.08Z"/>
      </g>
    </g>
  </g>
</svg>