<?xml version="1.0" encoding="UTF-8"?>
<svg xmlns="http://www.w3.org/2000/svg" viewBox="0 0 265.8 361">
  <defs>
    <style>
      .cls-1 {
        isolation: isolate;
      }

      .cls-2 {
        fill: #413f6e;
      }

      .cls-2, .cls-3, .cls-4 {
        stroke-width: 0px;
      }

      .cls-3 {
        fill: #fbe5bd;
      }

      .cls-4 {
        fill: #231f20;
        mix-blend-mode: multiply;
        opacity: .5;
      }
    </style>
  </defs>
  <g class="cls-1">
    <g id="Capa_2" data-name="Capa 2">
      <g id="Layer_1" data-name="Layer 1">
        <polygon class="cls-4" points="265.8 333 25.8 361 13 56.34 265.8 13 265.8 333"/>
        <polygon class="cls-2" points="252.8 320 12.8 348 0 43.34 252.8 0 252.8 320"/>
        <path class="cls-3" d="M208.55,124.65l-69.42,14.55v-48.5c0-3.98-3.52-5.24-10.56-3.77-7.37,1.54-11.05,4.31-11.05,8.29v169.93c0,3.99,3.68,5.21,11.05,3.66,7.04-1.47,10.56-4.2,10.56-8.19v-60.46l69.42-14.55v62.17c0,11.61-8.09,22.62-24.27,33.01-16.18,10.39-34.47,17.73-54.86,22-58.91,12.35-88.36,3.83-88.36-25.55V119.62c0-31.77,29.45-53.82,88.36-66.17,52.76-11.06,79.13-2.12,79.13,26.8v44.41Z"/>
      </g>
    </g>
  </g>
</svg>