<?xml version="1.0" encoding="UTF-8"?>
<svg xmlns="http://www.w3.org/2000/svg" viewBox="0 0 275.53 313">
  <defs>
    <style>
      .cls-1 {
        isolation: isolate;
      }

      .cls-2 {
        fill: #d9bfa0;
      }

      .cls-2, .cls-3, .cls-4 {
        stroke-width: 0px;
      }

      .cls-3 {
        fill: #413f6e;
      }

      .cls-4 {
        fill: #231f20;
        mix-blend-mode: multiply;
        opacity: .5;
      }
    </style>
  </defs>
  <g class="cls-1">
    <g id="Capa_2" data-name="Capa 2">
      <g id="Layer_1" data-name="Layer 1">
        <polygon class="cls-4" points="275.53 313 13 269 13 57 265.17 13 275.53 313"/>
        <polygon class="cls-3" points="262.53 300 0 256 0 44 252.17 0 262.53 300"/>
        <path class="cls-2" d="M166.4,246.82c-10.59,2.18-21.96.55-27.13-7.37-43.14,22.93-99.2-16.93-97.91-71.53,1.29-49.42,47.02-90.92,94.3-77.54,1.29-9.01,2.32-28.12,6.46-37.41,2.07-5.19,6.98-10.65,18.34-9.56,12.92.82,18.6,6.28,20.93,10.92,2.07,4.91,1.29,9.28,1.29,9.28-5.68,49.42-3.36,130.51,3.1,168.46,2.07,6.28-8.01,12.56-19.38,14.74ZM130.49,181.02c-.26-13.65-.26-27.3.78-43.14-20.67-8.46-40.56,5.73-41.59,31.13,0,24.57,23.25,31.4,40.82,12.01Z"/>
      </g>
    </g>
  </g>
</svg>