<?xml version="1.0" encoding="UTF-8"?>
<svg xmlns="http://www.w3.org/2000/svg" viewBox="0 0 385 417">
  <defs>
    <style>
      .cls-1 {
        isolation: isolate;
      }

      .cls-2 {
        fill: #bf8a49;
      }

      .cls-2, .cls-3, .cls-4 {
        stroke-width: 0px;
      }

      .cls-3 {
        fill: #413f6e;
      }

      .cls-4 {
        fill: #231f20;
        mix-blend-mode: multiply;
        opacity: .5;
      }
    </style>
  </defs>
  <g class="cls-1">
    <g id="Capa_2" data-name="Capa 2">
      <g id="Layer_1" data-name="Layer 1">
        <polygon class="cls-4" points="385 417 13 417 61 13 317 13 385 417"/>
        <polygon class="cls-3" points="372 404 0 404 48 0 304 0 372 404"/>
        <path class="cls-2" d="M152.85,190.51l-1.54,39.22-.77,24.53c-.63,16.12-.91,28.32-.81,36.23,19.55,1.44,40.58,2.16,63.02,2.16,15.05,0,27.64-.65,37.74-1.96,6.5-.78,13.3-2.47,20.37-5.07,2.08-11.2,3.85-24.79,5.33-40.51h12.53c.07,26.51.73,45.2,1.98,54.87l1.6,9.14c-15.59,1.37-31.01,2.05-46.24,2.05l-32.33-.62c-35.64-.96-61.78-1.44-78.47-1.44s-37.34.48-64.03,1.44l1.65-12.75h6.28c11.75,0,19.25-1.13,22.5-3.38,3.23-2.23,5.71-7.45,7.43-15.53,1.68-7.92,3.64-24.87,5.79-49.75l7.14-82.42c1.03-11.86,1.49-21.27,1.43-28.41-.07-6.99-.43-11.09-1.09-12.4-.66-1.3-1.68-2.31-3.07-3.01-1.38-.7-5.77-1.33-13.16-1.88l-11.81-.93.99-7.26h16.54l16.2.4c9.07.27,15.96.4,20.66.4l58.84-.66,27.86-.13c9.48-.07,19.11.19,28.89.8-2.75,9.17-3.44,21.51-1.96,37.36h-11.04c-.96-9.26-2.32-16.77-4.07-22.64-12.63-3.49-27.81-5.22-45.65-5.22-14.21,0-29.1.47-44.71,1.41-.18,7.48-.58,15.13-1.2,22.96l-1.11,20.06-1.12,28.36c11.41.68,21.52,1.02,30.3,1.02,27.51,0,43.04-.8,46.57-2.4,3.51-1.59,4.95-6.49,4.34-14.57l-.67-8.94h11.37c.48,13.94,1.13,25.48,1.93,34.34.87,9.6,2.34,21.24,4.46,35.12h-12.51l-.71-9.42c-.76-10.12-3.44-16.18-8.03-18.38-4.56-2.18-20.18-3.27-46.88-3.27-9.88,0-20.12.35-30.74,1.06Z"/>
      </g>
    </g>
  </g>
</svg>