<?xml version="1.0" encoding="UTF-8"?>
<svg xmlns="http://www.w3.org/2000/svg" viewBox="0 0 218.24 358">
  <defs>
    <style>
      .cls-1 {
        isolation: isolate;
      }

      .cls-2 {
        fill: #a69677;
      }

      .cls-2, .cls-3, .cls-4 {
        stroke-width: 0px;
      }

      .cls-3 {
        fill: #413f6e;
      }

      .cls-4 {
        fill: #231f20;
        mix-blend-mode: multiply;
        opacity: .5;
      }
    </style>
  </defs>
  <g class="cls-1">
    <g id="Capa_2" data-name="Capa 2">
      <g id="Layer_1" data-name="Layer 1">
        <polygon class="cls-4" points="218.24 358 13 358 13 13 197.71 13 218.24 358"/>
        <polygon class="cls-3" points="205.24 345 0 345 0 0 184.71 0 205.24 345"/>
        <path class="cls-2" d="M96.77,42.62c15.75,0,38.46,2.49,38.92,18.26,0,4.98-.93,12.45-1.85,18.26-4.63,26.57-18.07,91.74-25.95,144.04h-22.24c-6.49-48.15-19.92-114.15-25.48-142.79-1.39-4.98-3.24-14.53-3.24-19.51,0-14.53,23.17-18.26,39.85-18.26ZM97.23,323.23c-21.78,0-37.53-14.11-37.53-34.87s15.75-34.45,37.53-34.45,37.99,14.11,37.99,34.45-15.75,34.87-37.99,34.87Z"/>
      </g>
    </g>
  </g>
</svg>