<?xml version="1.0" encoding="UTF-8"?>
<svg xmlns="http://www.w3.org/2000/svg" viewBox="0 0 237 501">
  <defs>
    <style>
      .cls-1 {
        isolation: isolate;
      }

      .cls-2 {
        fill: #0d0d0d;
      }

      .cls-2, .cls-3, .cls-4, .cls-5 {
        stroke-width: 0px;
      }

      .cls-3 {
        fill: #d9bfa0;
      }

      .cls-4 {
        fill: #413f6e;
      }

      .cls-5 {
        fill: #231f20;
        mix-blend-mode: multiply;
        opacity: .5;
      }
    </style>
  </defs>
  <g class="cls-1">
    <g id="Capa_2" data-name="Capa 2">
      <g id="Layer_1" data-name="Layer 1">
        <polygon class="cls-5" points="205 501 13 463 13 47 237 13 205 501"/>
        <polygon class="cls-4" points="192 488 0 450 0 34 224 0 192 488"/>
        <g>
          <path class="cls-3" d="M190.49,122.14c-3.29-13.31-11.87-19.97-25.76-19.97h-83.33c-4.54.37-9.09.93-13.63,1.67-13.39,2.22-21.72,9.62-25,22.18-2.28,138.27-3.41,218.48-3.41,240.66v17.75c0,11.84,8.33,18.85,25,21.07,14.39,1.11,23.35-2.22,26.89-9.98,6.31-14.41,9.21-50.64,8.71-108.68,4.55.75,7.96,1.11,10.23,1.11h4.93c11.11,0,25.88.19,44.31.56,8.08,0,12.37-11.28,12.88-33.83.25-7.02-1.39-13.31-4.93-18.85-4.55-6.28-24.75-9.98-60.6-11.09l-5.68-.56-.38-61c3.53,0,28.28.55,74.24,1.67h2.65c9.09-5.91,13.64-16.82,13.64-32.72v-3.33l-.76-6.65ZM168.9,131.01c0,11.09-5.06,18.12-15.15,21.07l-77.64-2.22c-.76,0-1.27.75-1.52,2.22v84.84l.76,1.67c10.35-1.11,20.32-1.67,29.92-1.67h15.91c18.18,0,27.27,5.36,27.27,16.08,0,15.16-4.8,22.74-14.39,22.74-35.85-2.59-55.81-3.33-59.84-2.22,0,17.01-.76,42.34-2.27,75.97-1.01,26.62-5.05,39.92-12.12,39.92h-6.06c-2.78,0-5.3-2.22-7.57-6.66v-1.11c0-17.37,1.13-101.66,3.4-252.86.76,0,1.14-.92,1.14-2.77,6.06-8.5,17.67-12.76,34.84-12.76h27.27c15.65.75,28.15,1.3,37.49,1.67,9.85-.74,16.04,2.97,18.56,11.09v4.99Z"/>
          <path class="cls-2" d="M168.9,126.02v4.99c0,11.09-5.06,18.12-15.15,21.07l-77.64-2.22c-.76,0-1.27.75-1.52,2.22v84.84l.76,1.67c10.35-1.11,20.32-1.67,29.92-1.67h15.91c18.18,0,27.27,5.36,27.27,16.08,0,15.16-4.8,22.74-14.39,22.74-35.85-2.59-55.81-3.33-59.84-2.22,0,17.01-.76,42.34-2.27,75.97-1.01,26.62-5.05,39.92-12.12,39.92h-6.06c-2.78,0-5.3-2.22-7.57-6.66v-1.11c0-17.37,1.13-101.66,3.4-252.86.76,0,1.14-.92,1.14-2.77,6.06-8.5,17.67-12.76,34.84-12.76h27.27c15.65.75,28.15,1.3,37.49,1.67,9.85-.74,16.04,2.97,18.56,11.09Z"/>
        </g>
      </g>
    </g>
  </g>
</svg>