<?xml version="1.0" encoding="UTF-8"?>
<svg xmlns="http://www.w3.org/2000/svg" viewBox="0 0 269 399">
  <defs>
    <style>
      .cls-1 {
        isolation: isolate;
      }

      .cls-2 {
        fill: #413f6e;
      }

      .cls-2, .cls-3, .cls-4 {
        stroke-width: 0px;
      }

      .cls-3 {
        fill: #fbe5bd;
      }

      .cls-4 {
        fill: #231f20;
        mix-blend-mode: multiply;
        opacity: .5;
      }
    </style>
  </defs>
  <g class="cls-1">
    <g id="Capa_2" data-name="Capa 2">
      <g id="Layer_1" data-name="Layer 1">
        <polygon class="cls-4" points="269 399 13 399 29 95 233 13 269 399"/>
        <polygon class="cls-2" points="256 386 0 386 16 82 220 0 256 386"/>
        <path class="cls-3" d="M92.72,195.68c-7.69,6.08-10.57,12.17-10.57,16.01,0,5.76,5.44,12.17,19.85,12.17,11.85,0,25.3-.32,35.86-.32,20.49,0,46.75,6.72,46.75,38.43,0,33.3-39.39,64.68-81.98,64.68-36.19,0-55.72-21.13-56.36-40.03,0-7.04,2.88-13.13,8.01-18.25,6.4-6.72,18.89-17.29,26.26-23.06-11.53-3.2-19.85-10.57-24.02-17.29-2.88-4.8-3.84-10.57-3.84-13.77,12.17-4.48,23.06-13.45,29.46-22.1l10.57,3.52ZM108.09,198.88c-29.78,0-54.44-18.25-54.44-48.35,0-36.51,32.66-53.48,57.64-53.48,10.57,0,21.13,2.88,30.74,8.01,14.73,0,33.94-2.56,42.91-4.8l1.92,2.88c-1.92,5.12-7.05,14.09-11.85,16.97-4.8,0-15.37-1.28-19.85-1.6,5.44,7.36,9.29,17.61,9.29,29.14,0,34.9-28.82,51.24-56.36,51.24ZM115.45,246.27c-15.69,0-22.74,1.92-28.5,6.72-8.97,7.37-15.37,16.97-15.37,26.26,0,17.61,18.25,30.74,42.91,30.74,30.42,0,47.71-15.69,47.71-36.18,0-10.89-5.12-19.53-14.09-23.38-8-3.52-19.21-4.16-32.66-4.16ZM108.09,107.29c-14.41,0-27.22,13.13-27.22,38.43s12.81,42.91,30.42,42.91c14.09-.64,26.58-12.49,26.58-38.43s-11.85-42.91-29.78-42.91Z"/>
      </g>
    </g>
  </g>
</svg>