<?xml version="1.0" encoding="UTF-8"?>
<svg xmlns="http://www.w3.org/2000/svg" viewBox="0 0 345 385">
  <defs>
    <style>
      .cls-1 {
        isolation: isolate;
      }

      .cls-2 {
        fill: #d9bfa0;
      }

      .cls-2, .cls-3, .cls-4 {
        stroke-width: 0px;
      }

      .cls-3 {
        fill: #413f6e;
      }

      .cls-4 {
        fill: #231f20;
        mix-blend-mode: multiply;
        opacity: .5;
      }
    </style>
  </defs>
  <g class="cls-1">
    <g id="Capa_2" data-name="Capa 2">
      <g id="Layer_1" data-name="Layer 1">
        <polygon class="cls-4" points="345 385 69 385 13 13 345 53 345 385"/>
        <polygon class="cls-3" points="332 372 56 372 0 0 332 40 332 372"/>
        <path class="cls-2" d="M263.1,107.52l1.15-.44v.62s.58-.53.58-.53l.58.09c.38.06.58.3.58.71l.57-.53,2.3.36c.76.12,1.34.42,1.73.88.37-.35.94-.47,1.71-.35v.62s0-.62,0-.62c2.29.35,3.81,2.43,4.58,6.21v2.43s-.56-.08-.56-.08c.75.93,1.14,1.59,1.14,1.99l-.56,1.13c.37.46.57.9.57,1.29l-.56.52.57,1.89c-.38-.05-.56.13-.56.52.37.05.75.92,1.13,2.57-.38-.05-.56.13-.56.52l.56.68-.56.52c0,.8.19,1.43.57,1.87-.38.35-.56.92-.56,1.71l.56,1.27-.56-.08c.37,1.24.57,2.66.57,4.24v.59s0,.59,0,.59v.59s0,.59,0,.59c0,.4-.19.57-.56.52l.56,1.25v1.18s-.55.52-.55.52c0,.4.18.81.56,1.25,0,1.17-.19,2.13-.55,2.86l.56.07v4.09c.01.39.01.78.01,1.17v.58s0,.58,0,.58v4.06s.56.07.56.07c0,3.46-.18,5.17-.54,5.13l1.1,2.42c-.37.34-.92.47-1.65.39.73.08,1.1.51,1.1,1.27v.57c0,.38-.19.55-.55.51l.55.06c0,1.53-.18,2.26-.54,2.22v.57s.01,3.41.01,3.41v.57c.36.42.55.82.55,1.19l-.55-.06.55,1.19-.54.51c.36.42.55,1,.55,1.75l-.54-.06.55.62v3.37s.55,1.73.55,1.73l-.54-.05.54,1.17v1.12c0,.75-.18,1.29-.54,1.62.36.41.54.8.54,1.16l-.54,1.06c.36.41.54.8.54,1.16l-.54.5c.35.4.54.79.54,1.16v.55s-.54.5-.54.5c.35.4.54.79.54,1.15v.55s0,.55,0,.55v.55c0,.74-.36,1.07-1.07,1.01v.55s1.08.09,1.08.09v1.65s-.53.5-.53.5c.71.06,1.07.46,1.07,1.19-.36-.03-.54.14-.54.5l.54,1.14c0,.37-.18.53-.53.5v2.73s0,1.63,0,1.63c.35.03.71.42,1.07,1.17v2.71c0,1.08-.18,1.61-.53,1.58.35,1.83.53,2.92.54,3.27,0,1.8-.18,2.67-.53,2.64l.53,2.71v.53s0,1.6,0,1.6v.53s0,1.06,0,1.06v.53s0,.53,0,.53v.53s0,1.06,0,1.06c0,.36,0,.71,0,1.06,0,.71-.18,1.05-.52,1.02l1.06,4.28-.52-.03.52,1.08v3.14c0,.35-.18.69-.52,1.02.34.37.52.73.52,1.07l-.52.49c.34.37.52.9.52,1.59,0,.35-.18.51-.52.49l.52.55v1.56c0,1.38.18,3.63.53,6.74-.35-.02-.52.15-.52.49.34.71.52,1.4.52,2.08l-.52-.02v.51s1.03.05,1.03.05l-.52,1.51c0,.34.17.69.52,1.04l-.52,1.51v.51s0,.51,0,.51v.51s0,1.52,0,1.52v1.01s0,.51,0,.51v.51c-.34.33-.69.48-1.03.47l1.54,1.07-.51.99.51,1.53c0,.34-.18.5-.51.49l.51.52v1.01s-.51-.02-.51-.02c0,.34.17.51.51.52l-.51,1.99.51,2.02c-.34.32-.51.66-.51.98.34,1.01.51,1.84.51,2.5-.34,0-.51.16-.51.48l1.02.52h-.51s.51,2.48.51,2.48v.49l-1.02.96h.51s0-.48,0-.48c.33,0,.51.18.51.51-.34,0-.68.97-1.01,2.93.67,1,1.01,1.83,1.01,2.48v.49l-1.01-.51v.49c.33.34.67,1.32,1.01,2.95-.34.97-.68,1.62-1.01,1.93.33.66.51,1.47.51,2.44v1.94s-.5.48-.5.48c.67,0,1.01.18,1.01.5v.48h-.5s.5.97.5.97h-1c0,.64.33.96,1,.96l-.5,1.44v.96s.5.97.5.97c0,.32-.34.48-1,.47l.5.48v.96c-.67,4.14-2.33,6.2-4.99,6.19h-2.01s0-.48,0-.48h-1.01c0,.64-.5.95-1.51.95h-1.01s-1.52,0-1.52,0h-1.01c-.34,0-.68,0-1.01,0h-.51s-2.03.48-2.03.48c-.35-.32-.69-.48-1.03-.48v.48c0-.32-.34-.48-1.02-.48h-1.02s-.51,0-.51,0h-1.54s-2.06,0-2.06,0c0-.32-.35-.48-1.04-.48l-1.02.97-4.66.48v-.49s-1.55.97-1.55.97h-12.09c-.02-.65-.21-.98-.56-.98h-.53s.03.98.03.98c-2.88-.98-4.36-3.12-4.47-6.42h1.07s-.02-.49-.02-.49h-1.07c-.01-.33.16-.5.52-.5l-.02-.5-.02-.5c-.01-.33-.02-.66-.03-.99-.02-.66-.04-1.16-.05-1.49l-.02-.5-.03-1c-.38-.67-.58-1.33-.6-2l-.02-.5h.54s-.57-1-.57-1c-.01-.33.16-.5.52-.5-.01-.33-.02-.67-.03-1l-.02-.5c-.4-1.01-.59-1.68-.61-2.02.34-.33.52-.66.51-1l.02.5h.54s-.02-.5-.02-.5c-.36,0-.55-.34-.57-1.02l-.02-.51-.05-1.52-.03-1.01c-.43-2.04-.67-3.91-.72-5.61l.53-.5c-.38-.34-.57-.86-.6-1.55l-.02-.51.53-.5h-.55c-.04-1.38.11-2.06.48-2.05l-.05-1.54-.02-.52-.58-1.05-.02-.52.55.02-.03-1.03c-.07-2.07.44-3.26,1.53-3.58l-1.13-1.07c.01.35-.17.51-.53.5-.01-.34-.02-.69-.03-1.04l-.07-2.09-.13-4.19-.02-.52-.02-.53-.05-1.58-.02-.53c-.01-.35-.02-.7-.03-1.05-.01-.35-.24-1.59-.67-3.73l1.08-1.01-.57-.56-.02-.53.44-3.7-.56-.03-.02-.53c-.01-.35.17-.53.54-.51-.45-2.51-1.43-3.82-2.92-3.89l-2.83-.68c-3.36.55-5.04,1.01-5.03,1.36l-1.16-.6-1.12.48c-.79-.76-1.38-1.15-1.75-1.17l-2.29-.12-.02-.54-1.15-.06.02.54.62,1.12-1.74-.63-3.96,1.43c-.78-.04-1.16-.24-1.18-.6l-2.87.4-1.77-.63-2.83,1.5c-.79-.04-1.18-.24-1.2-.6l-.56.52-.58-.03-1.23-1.16c.02.37-.35.72-1.12,1.04l-.59-.03c-.39-.02-.61-.39-.65-1.13l-1.71,1.02-1.18-.06-1.18-.06-.59-.03c-1.56.29-2.93.41-4.12.35l-.6-.03-1.79-.09c-.8-.04-1.4-.07-1.79-.09-.4-.02-.8-.04-1.2-.06l-1.2-.06-.56.53-2.45-.67-1.21-.06c-.81-.04-1.99.46-3.52,1.5-.03-.37-.66-.77-1.9-1.2-.79.34-1.79.47-3.01.42l-.61-.03-.61-.03c-1.64-.08-2.38.82-2.24,2.69l.67,8.9c.03.37-.17.55-.57.53l.65.58.17,2.21,1.22.04-.48,1.63c.03.37.25.75.69,1.12l-1.05,2.15.08,1.09.12,1.64c.08,1.09.55,2.01,1.41,2.76-.27,1.8-.59,2.88-.96,3.22.42.37.66.74.68,1.1l-.6-.02.64.56c-.35.72-.51,1.25-.48,1.6l1.24.57c-.35.71-.67,1.78-.96,3.2.39,0,.61.2.64.55l-.4,2.67c.79.02,1.21.21,1.24.56l-.56.52c.42.37.65.73.68,1.08l.12,1.6.08,1.06.08,1.06-.52,1.05h.6s-1.15.52-1.15.52l.63.54.12,1.59h-.59s.67,1.06.67,1.06c.03.35-.16.52-.55.52l.63.53.08,1.05-.55.52h.59s-.51,1.05-.51,1.05c.84.71,1.29,1.41,1.34,2.11l-.55.52.63.53c.05.7-.24,2.08-.87,4.16l.04.52c-.4,0-.58.18-.55.52.39,0,.6.18.63.52-.4,0-1.47,1.38-3.22,4.13h-.59s-1.18,0-1.18,0c.03.35-.16.52-.55.52l-3.01-.52c-.37.35-.76.52-1.15.52l-.04-.52-.55.52c-.4,0-.61-.17-.64-.52l-.55.52c-.4,0-.61-.17-.64-.52l-.55.52h-.6c-.4,0-.61-.17-.64-.52l-.55.52c-.4,0-.61-.17-.64-.52l.04.52-2.45-.53-2.36.52c-.03-.34-.25-.52-.65-.52.06.7-.11,1.05-.51,1.05h-1.81s-.05-.53-.05-.53l-1.77.52h-1.22s-1.83,0-1.83,0h-.61s-.61,0-.61,0l.56-.53h-.61c-.38.35-.77.52-1.17.52-4.09,0-6.16-.18-6.19-.54-.41,0-.6.18-.56.53-3.34-.35-5.24-.71-5.68-1.07-2.49,0-4.12.35-4.88,1.06l-.68-.53.06.53-3.25-1.07c.08.72-1.1,1.43-3.55,2.13l-.69-.54-1.2.53-4.63-1.61-.06-.54h.64c-.59-1.43-.91-2.33-.95-2.7l-.12-1.08-.83-1.63.58-.54c-.6-1.45-.91-2.36-.96-2.72.25-1.44.37-2.35.33-2.72l-.13-1.09c-.34-2.92-.73-4.39-1.15-4.4l.46-1.64-.25-2.21-.84-1.67c.43,0,.61-.35.52-1.1l-.06-.56-.06-.56-.19-1.67-.06-.56-.06-.56c-.04-.37-.42-1.68-1.1-3.93h.65s-.65,0-.65,0l.33-2.79-.26-2.25-.06-.56c-1.01-1.15-1.53-1.92-1.57-2.3-.17-1.51.1-2.82.86-3.94-.44-.01-.68-.21-.72-.59-.09-.76-.07-2.46.07-5.12-.04-.38-.38-1.34-.99-2.89l.46-1.7c-.62-1.55-1.16-2.34-1.59-2.36.39-.36.58-.74.53-1.13l-.73-.61c.26-1.52,1.06-2.27,2.39-2.21l-.13-1.16-1.26.53-.8-1.19.4-2.3c-.18-1.55-.34-2.92-.47-4.1l-.14-1.17-.07-.59c-.45-.02-.69-.22-.74-.62l-.07-.59c-.09-.78.08-1.17.54-1.15l-.07-.59-.07-.59c-.54-.81-.92-2.2-1.15-4.18l.67.04-.74-.63c-.05-.39.37-.57,1.28-.52l-1.56-1.86c-.09-.79.06-1.38.47-1.75-.5-.42-.79-1.03-.88-1.83-.05-.39.54-1.16,1.76-2.28l-3.13-3.77.54-1.17.75.65.68.04-.07-.6c-.91-.06-1.43-.69-1.57-1.9l.68.04-.75-.65-.07-.61.68.04-.21-1.82-.07-.61c-1.15-2.09-1.74-3.34-1.79-3.75.91.06,1.35-.11,1.3-.52l-.14-1.22-.76-.66.62-.57-.07-.61-.14-1.23c-.05-.4-.09-.82-.14-1.23l.55-1.18c-.46-.03-.73-.45-.83-1.28-.14-1.23.01-1.84.48-1.8l-.76-.67.48-1.81-.69-.05-.07-.62-.14-1.24-.21-1.87-.91-1.93c.26-1.62.33-3.07.19-4.33l.69.06-.69-.06-.07-.63-.07-.63-.99-2.58,1.11-2.41c-.47-.04-1.08-1.35-1.84-3.93l.7.06-.77-.7-.07-.64.7.06-.07-.64.55-1.21c-.76-2.6-1.46-4.56-2.07-5.89l.63-.58c-.52-.47-.8-.92-.85-1.35l.71.07-1.08-3.29.34-3.17-.07-.65-.07-.65-.07-.65-.07-.65.56-1.23c-.48-.05-.73-.29-.78-.72l-.07-.65-.08-.65-.23-1.96.71.07-.07-.65c-.96-.1-1.45-.36-1.5-.81.47.05.69-.14.64-.58l-.08-.66-1.66-2.13.71.08-.94-2.06.98-3.81c-.53-.49-.82-.96-.87-1.41.47.05.69-.14.64-.58l-.72-.08.64-.58-.8-.75.49-1.92c-.53-.49-.82-.97-.87-1.42.47.05.7-.14.64-.58-.97-.11-1.47-.39-1.52-.84l1.21-1.84-.8-.76.57-1.26-.96-2.11.72.09-.16-1.35-.73-.09-.23-2.03c-.05-.44.16-.65.65-.59l-2.08-5.62c.97.12,1.43-.04,1.38-.5l-1.85-3.6,1.54.87-.16-1.37-.89-1.47c.48.06.81-1.25.99-3.93l-.81-.79-.16-1.38.65-.59c-.49-.07-.76-.33-.81-.79-.11-.92-.19-1.61-.24-2.08l-.32-2.78-.24-2.09c-.05-.46-.58-2.83-1.55-7.11l.74.11-.08-.7-.16-1.41-.08-.71-.08-.71-.08-.71-.08-.71-.08-.71-.16-1.42c.77-1.74,1.91-2.5,3.39-2.28.05.48.57.78,1.56.93l1.48.22.08.71c.98.15,1.43-.24,1.32-1.19l1.47.22c.98.15,1.69.03,2.13-.37,1.03.62,1.78.96,2.28,1.04.43-.39.9-.56,1.39-.48l.07.7.66-.59,1.53.92,1.46.22-.07-.7.73.11c.48.07,1.98.76,4.49,2.05-.05-.46.17-.66.65-.59l.72.11,1.44.22,2.87.43c.47.07.69-.12.65-.59l2.21,1.02,4.98.75.71.11c-.04-.45.4-.62,1.35-.48.9-.31,1.81-.41,2.76-.26l2.18,1.01-.12-1.38c.46.07.95.38,1.47.9,6.02.47,9.47.76,10.4.9.04.46.28.72.75.79l.69.1c-.07-.91.11-1.33.58-1.26l.75.79c-.04-.45,1.29-.92,3.97-1.41l1.43.89c-.04-.45.17-.65.63-.57l.05.68,1.37.21c3.18.49,4.79.96,4.82,1.41l1.31-.47c.54,1.42,1.27,2.19,2.18,2.33.07.9.85,2.57,2.36,5-.45-.07-.66.13-.62.57l.77,1.43.14,2-.57,1.23c.89.13,1.36.42,1.39.86-.84.76-1.21,1.58-1.15,2.46l1.34.19.05.66-.62.57c.44.06.7.54.76,1.41l.05.66.09,1.32-.67-.09.09,1.32-.67-.09.05.66c.47.5.93.78,1.38.84l-.57,1.22.05.65c.13,1.75.5,3.95,1.13,6.61l-.66-.09.71.74-.47,2.51.75,1.38c-.35,1.23-.49,2.29-.43,3.14l.75,1.37-1.32-.17c.46.49.92.75,1.36.81l-.56,1.2.84,2.64c.06.86-.46,2.69-1.55,5.5l.65.08.05.64.09,1.27.23,3.17.05.63.23,3.15c.03.42.06.85.09,1.26.49.89.76,1.54.79,1.96l-.6.55.14,1.88c.06.84.11,1.46.14,1.87l.09,1.25-.65-.07.05.62.65.07.05.62-.6.55.09,1.24-.51,1.79c.86.09,1.31.35,1.33.75l-.51,1.79.04.62.04.62-.64-.07c.03.41.26.64.69.68l-.51,1.78c.42.04.66.28.69.68.09,1.23-.25,2.41-1.02,3.55.42.04.93,1.1,1.51,3.18l-.64-.06.73,1.28-.55,1.16c.45.45.7.88.73,1.27l-.64-.06.68.67c.03.41-.18.59-.59.55.09,1.21,1.01,2.3,2.76,3.25-.06-.8,1.18-1.09,3.72-.87,1.29.52,2.98.86,5.08,1.05.81-.32,1.42-.47,1.84-.43l.04.6-.63-.06.04.6,1.88.17-.66-.65-.04-.6c.41.04.83.07,1.25.11l.66.65.59-.54.62.06.04.6,1.21-.49.04.6,1.21-.48.04.6,1.2-.48c.41.04.64.46.69,1.25l.58-.54c.41.04.83.28,1.27.71l2.43-.37,1.26.7-.03-.59,2.49.81,1.19-.48.64.65c.4.04.81.07,1.22.11,1.22.11,1.84.36,1.86.75l.58-.53c.4.04,1.22.31,2.45.8.38-.35.97-.5,1.78-.43.04.79.26,1.19.66,1.23-.02-.38.17-.57.57-.53l.6.05,2.4.21c.39.03.8.07,1.2.11,1.59.14,2.4.41,2.42.79l2.36-.37.64,1.21c.39.03,1.37-.26,2.92-.9l.62.63c.39.03.58-.14.57-.53,1.98.56,2.98,1.04,2.99,1.42l1.18.1,1.17.1c.38.03.78.07,1.17.1l.58.05.58.05c.38.03.97.08,1.75.15,1.16.1,1.7-1.18,1.61-3.88l-.08-2.31-.02-.58c-.03-.77-.29-2.72-.78-5.87l.53-1.69c-.39-.04-.81-.66-1.24-1.87l.57-.53-.65-1.82c.71-1.88,1.06-3.21,1.04-4l-.63-1.24.59.06c-.42-.83-.88-2.65-1.37-5.46l.59.06-.61-.66-.06-1.79c-.01-.39.17-.58.57-.53l-.61-.66c-.01-.39.18-.58.57-.53l-.62-.66c-.01-.39.18-.58.57-.53-.88-2.49-1.33-4.13-1.36-4.94.39.05.58-.33.55-1.14-.01-.4-.23-.63-.62-.67-.01-.4.17-.78.55-1.14l-.68-2.49,1.11-2.28-.68-2.51-.02-.61-.04-1.22-.02-.61-.06-1.84-.02-.61c-.4-.05-.61-.28-.62-.69-.01-.4.18-.59.58-.54l-.62-.69c-.01-.4.18-.59.58-.54l-.62-.69.58-.54c-.42-.46-.64-1.1-.67-1.93.4.05.6-.12.58-.54l-.8-5.66.52-2.41c-.01-.41-.03-.83-.04-1.25l-.7-2.58c.31-2.45.86-4.03,1.65-4.76-.82-.12-1.23-.38-1.24-.8l.61.09c-.01-.41-.23-.66-.63-.72-.01-.41.17-.81.57-1.17l-.11-3.16.61.09-1.27-1.45c.81.12,1.6-.6,2.36-2.17.4.06.6-.33.57-1.18l.61.09.63.73c-.03-.84,1.35-1.9,4.14-3.16l.65,1.36.59-.54,1.84.91-.04-1.27.6.09.02.63,1.19-.45.02.63,1.19-.45.62.72c.38-.35.78-.51,1.19-.45.4.06.8.12,1.2.18l.6.09c.39.06.8.12,1.2.18,1.18-.65,3.75-.68,7.71-.07v.63s1.18-.44,1.18-.44l1.19.81c.38-.35.77-.5,1.17-.44.39.48.79.74,1.19.81.38-.35.77-.5,1.17-.44v.62c.78-.29,1.76-.35,2.93-.17.38.06.59.3.59.71l5.22-1.06v.62ZM158.11,197.64l.04.6.63.05-.04-.6-.63-.05ZM158.7,197.1l1.27.1-.04-.6-.63-.05c-.43-.04-.62.15-.59.55ZM159.06,201.86l.68.64,1.26.1c-.45-.42-.69-.84-.72-1.24l-.63-.05c-.43-.03-.62.15-.59.54ZM160.26,209.6c.03.4.46.62,1.3.68l.63.05-1.93-.73ZM161.9,231.67l.04.57,1.24.07-.04-.57-1.24-.07ZM153.27,106.48l.67.1-.67-.1ZM160.74,199.04c.03.4.47.83,1.35,1.29l-.04-.59-.67-.65-.63-.05ZM162.85,202.16c.03.4.25.61.67.64l-.04-.59-.63-.05ZM163.27,208.07l1.25.09-.08-1.18c-.42-.03-.81.33-1.17,1.08ZM165.28,218.68c.03.39.06.78.08,1.16.41.03.8-.33,1.16-1.08l-.66-.62-.58.54ZM165.86,226.77l.04.57c.38-.35.78-.52,1.19-.5l-1.24-.08ZM168.01,222.32l.04.58.62.04-.04-.58-.62-.04ZM166.99,198.96l1.25.1-1.25-.1ZM168.21,198.47l.04.59.63.05-.04-.59-.63-.05ZM168.74,206.14c.03.39.24.6.66.63l-.04-.59-.62-.05ZM168.96,200.29l.08,1.18.62.05c-.05-.78.7-1.9,2.26-3.35l-1.25-.1c-.42-.03-.99.71-1.71,2.22ZM169.22,195l.04.6.63.05-.04-.59-.63-.05ZM170,197.43l.04.59.62.05-.04-.59-.62-.05ZM171.47,219.1l.73,1.77.54-1.11-.65-.62-.62-.04ZM173.32,219.23l.04.58.61.04-.04-.58-.61-.04Z"/>
      </g>
    </g>
  </g>
</svg>