<?xml version="1.0" encoding="UTF-8"?>
<svg xmlns="http://www.w3.org/2000/svg" viewBox="0 0 297 417">
  <defs>
    <style>
      .cls-1 {
        isolation: isolate;
      }

      .cls-2 {
        fill: #a69677;
      }

      .cls-2, .cls-3, .cls-4 {
        stroke-width: 0px;
      }

      .cls-3 {
        fill: #413f6e;
      }

      .cls-4 {
        fill: #231f20;
        mix-blend-mode: multiply;
        opacity: .5;
      }
    </style>
  </defs>
  <g class="cls-1">
    <g id="Capa_2" data-name="Capa 2">
      <g id="Layer_1" data-name="Layer 1">
        <polygon class="cls-4" points="297 417 53 393 13 13 281 65 297 417"/>
        <polygon class="cls-3" points="284 404 40 380 0 0 268 52 284 404"/>
        <path class="cls-2" d="M157.08,146.42c21.48,2.39,32.22,12.24,32.22,29.53,0,3.58-9.55,34.61-28.64,93.08-4.18,11.94-4.78,20-1.79,24.16,9.54,7.76,19.09,3.89,28.64-11.63h1.79v5.37c0,17.31-13.73,33.11-41.17,47.43-4.78,1.19-9.55,1.79-14.32,1.79h-10.74c-13.13,0-21.48-7.16-25.06-21.48v-7.16c0-13.72,14.32-50.71,42.96-110.97-5.37,2.39-11.34,3.58-17.9,3.58-11.34,1.79-19.69-3.27-25.06-15.21v-8.95c20.28-19.69,39.97-29.53,59.07-29.53ZM132.92,226.97c-12.53,35.8-19.69,59.67-21.48,71.6l8.95-22.37,12.53-49.22ZM132.02,161.63v1.79h3.58c7.75-3.58,16.7-5.37,26.85-5.37,8.35,2.39,12.53,5.97,12.53,10.74h1.79v-1.79c-2.39-8.35-8.36-12.53-17.9-12.53-4.18,0-13.13,2.39-26.85,7.16ZM139.18,291.4c1.19,7.76,4.17,11.94,8.95,12.53l14.32-1.79c-7.76-1.19-12.53-4.17-14.32-8.95-1.2-9.54,1.19-23.56,7.16-42.06-10.74,17.9-16.11,31.32-16.11,40.27ZM182.14,92.72c14.32,0,21.48,10.15,21.48,30.43,0,7.16-6.57,11.34-19.69,12.53h-10.74c-9.55,0-14.32-5.96-14.32-17.9,1.79-16.7,9.54-25.06,23.27-25.06Z"/>
      </g>
    </g>
  </g>
</svg>