<?xml version="1.0" encoding="UTF-8"?>
<svg xmlns="http://www.w3.org/2000/svg" viewBox="0 0 305 437">
  <defs>
    <style>
      .cls-1 {
        isolation: isolate;
      }

      .cls-2 {
        fill: #0d0d0d;
      }

      .cls-2, .cls-3, .cls-4 {
        stroke-width: 0px;
      }

      .cls-3 {
        fill: #413f6e;
      }

      .cls-4 {
        fill: #231f20;
        mix-blend-mode: multiply;
        opacity: .5;
      }
    </style>
  </defs>
  <g class="cls-1">
    <g id="Capa_2" data-name="Capa 2">
      <g id="Layer_1" data-name="Layer 1">
        <polygon class="cls-4" points="93 73 33 169 13 353 137 437 305 317 277 13 93 73"/>
        <polygon class="cls-3" points="80 60 20 156 0 340 124 424 292 304 264 0 80 60"/>
        <path class="cls-2" d="M52.63,343.24l20.29-35.5c9.19,6.34,18.39,10.78,30.43,10.78,18.39,0,28.53-9.51,34.24-37.41l20.29-101.44h-62.13l8.24-39.31h112.22l-29.16,145.19c-9.51,46.92-34.24,72.91-80.2,72.91-25.04,0-42.79-7.61-54.21-15.22ZM163.59,90.59c0-17.75,15.53-33.29,35.5-33.29,18.07,0,31.38,9.51,31.38,27.58,0,19.02-15.85,33.29-35.82,33.29-15.85,0-31.07-8.88-31.07-27.58Z"/>
      </g>
    </g>
  </g>
</svg>