<?xml version="1.0" encoding="UTF-8"?>
<svg xmlns="http://www.w3.org/2000/svg" viewBox="0 0 281 460">
  <defs>
    <style>
      .cls-1 {
        isolation: isolate;
      }

      .cls-2 {
        fill: #413f6e;
      }

      .cls-2, .cls-3, .cls-4 {
        stroke-width: 0px;
      }

      .cls-3 {
        fill: #fbe5bd;
      }

      .cls-4 {
        fill: #231f20;
        mix-blend-mode: multiply;
        opacity: .5;
      }
    </style>
  </defs>
  <g class="cls-1">
    <g id="Capa_2" data-name="Capa 2">
      <g id="Layer_1" data-name="Layer 1">
        <polygon class="cls-4" points="13 85 29 439 281 460 237 13 101 19 13 85"/>
        <polygon class="cls-2" points="0 72 16 426 268 447 224 0 88 6 0 72"/>
        <path class="cls-3" d="M36.38,90.06h65.73l-19.52,28.12v128.69l7.73-13.42v-113.56l15.73-23.22,2.11,4.69-14.47,21.31v104.19l43.54-78.83c6.27-11.36,9.41-21.59,9.41-30.68,0-5.4-1.78-10.55-5.34-15.45-3.56-4.9-7.87-8.13-12.92-9.69v-2.13h74.02v2.13c-16.2,5.97-33.66,25.99-52.39,60.08l-19.52,35.15,51.83,152.76,23.6,23.22h-72.9l18.4-20.88-34.83-105.68-22.89,42.4v60.93l22.89,40.69H44.53l-3.79-5.75h67.42l-17.84-32.6v-66.05l24.44-45.59-3.09-9.37-29.07,52.41v66.26l17,23.22H35.26l19.24-24.93V115.41l-18.12-25.35Z"/>
      </g>
    </g>
  </g>
</svg>