<?xml version="1.0" encoding="UTF-8"?>
<svg xmlns="http://www.w3.org/2000/svg" viewBox="0 0 258.61 482.42">
  <defs>
    <style>
      .cls-1 {
        isolation: isolate;
      }

      .cls-2 {
        fill: #a69677;
      }

      .cls-2, .cls-3, .cls-4 {
        stroke-width: 0px;
      }

      .cls-3 {
        fill: #413f6e;
      }

      .cls-4 {
        fill: #231f20;
        mix-blend-mode: multiply;
        opacity: .5;
      }
    </style>
  </defs>
  <g class="cls-1">
    <g id="Capa_2" data-name="Capa 2">
      <g id="Layer_1" data-name="Layer 1">
        <polygon class="cls-4" points="258.61 458.05 220.11 372.5 207.5 33.34 15.7 13 13 425.81 56.07 482.42 258.61 458.05"/>
        <polygon class="cls-3" points="245.61 445.05 207.11 359.5 194.5 20.34 2.7 0 0 412.81 43.07 469.42 245.61 445.05"/>
        <path class="cls-2" d="M116.75,342.81h10.06c5.17,0,9-1.71,11.47-5.14,2.47-3.43,5.71-11.36,9.71-23.8,1.41-4.8,3.12-7.71,5.12-8.74,2-1.03,5.41-1.54,10.24-1.54,5.29,0,8.71.37,10.24,1.1,1.53.73,2.29,2.08,2.29,4.04,0,1.37-.29,3.58-.88,6.61l-6.18,35.12c-.71,3.63-1.62,6.02-2.74,7.2-1.12,1.18-3.38,1.76-6.79,1.76H43.16c-4.94,0-7.41-2.55-7.41-7.64,0-3.92.32-6.44.97-7.57.65-1.12,2.03-1.98,4.15-2.57,6.71-1.76,10.06-6.91,10.06-15.43v-174.57c0-3.62-2.12-6.22-6.35-7.79-3.65-1.27-5.88-2.69-6.71-4.26-.82-1.57-1.24-4.16-1.24-7.79,0-4.31.35-6.98,1.06-8.01.71-1.03,2.59-1.54,5.65-1.54h81.35c3.06,0,5.15.61,6.26,1.84,1.12,1.23,1.68,4.53,1.68,9.92,0,3.23-.38,5.41-1.15,6.54-.77,1.13-2.74,2.13-5.91,3.01-5.88,1.67-8.82,4.9-8.82,9.7v189.56Z"/>
      </g>
    </g>
  </g>
</svg>