<?xml version="1.0" encoding="UTF-8"?>
<svg id="Capa_2" data-name="Capa 2" xmlns="http://www.w3.org/2000/svg" viewBox="0 0 366.94 324">
  <defs>
    <style>
      .cls-1 {
        fill: #bf8a49;
      }

      .cls-1, .cls-2 {
        stroke-width: 0px;
      }

      .cls-2 {
        fill: #413f6e;
      }
    </style>
  </defs>
  <g id="Layer_1" data-name="Layer 1">
    <polygon class="cls-2" points="0 0 344.29 20.18 366.94 309.61 0 324 0 0"/>
    <path class="cls-1" d="M236.43,235.34v-9.1c21.41-1.95,23.95-3.25,23.95-26.01v-54.29c0-23.08-8.71-37.71-31.21-37.71-13.79,0-26.49,6.83-40.28,16.91.36,3.9,1.09,7.8,1.09,13.98v63.07c0,20.48,3.27,22.11,23.22,24.06v9.1h-77.66v-9.1c22.5-1.95,25.76-3.25,25.76-24.71v-55.92c0-24.06-8.35-37.39-30.48-37.39-14.52,0-28.67,8.78-39.92,16.91v76.4c0,21.46,2.54,22.76,23.22,24.71v9.1H36.12v-9.1c23.95-1.95,26.13-3.25,26.13-24.71v-67.3c0-20.81-1.45-22.11-21.77-25.36v-8.13c17.06-2.28,34.11-6.5,50.44-13v26.33c7.62-5.2,15.24-10.73,26.85-16.91,9.07-5.2,17.06-8.45,28.67-8.45,17.42,0,32.3,9.75,39.55,26.66,10.16-7.15,19.6-12.68,28.67-18.21,7.98-4.55,18.14-8.45,28.67-8.45,28.3,0,45.72,18.21,45.72,50.07v62.74c0,21.78,2.18,22.76,22.86,24.71v9.1h-75.48Z"/>
  </g>
</svg>