<?xml version="1.0" encoding="UTF-8"?>
<svg xmlns="http://www.w3.org/2000/svg" viewBox="0 0 361 422.03">
  <defs>
    <style>
      .cls-1 {
        isolation: isolate;
      }

      .cls-2 {
        fill: #413f6e;
      }

      .cls-2, .cls-3, .cls-4 {
        stroke-width: 0px;
      }

      .cls-3 {
        fill: #fbe5bd;
      }

      .cls-4 {
        fill: #231f20;
        mix-blend-mode: multiply;
        opacity: .5;
      }
    </style>
  </defs>
  <g class="cls-1">
    <g id="Capa_2" data-name="Capa 2">
      <g id="Layer_1" data-name="Layer 1">
        <polygon class="cls-4" points="25 31.95 13 322.53 81 414.13 313 422.03 361 347.8 361 126.71 301 31.95 81 13 25 31.95"/>
        <polygon class="cls-2" points="12 18.95 0 309.53 68 401.13 300 409.03 348 334.8 348 113.71 288 18.95 68 0 12 18.95"/>
        <path class="cls-3" d="M164.96,43.03c39.59,0,71.25,13.43,94.95,40.29,23.71,26.86,35.56,62.77,35.56,107.73,0,42.48-11.69,76.35-35.07,101.6-23.38,25.26-54.79,37.88-94.22,37.88-31.12,0-58.82-8.9-83.1-26.71-35.68-26.28-53.53-65.18-53.53-116.71,0-44.08,12.22-79.12,36.66-105.1,24.44-25.98,57.35-38.98,98.74-38.98ZM164.96,61.86c-55.08,0-82.61,43.36-82.61,130.07,0,80.14,27.13,120.21,81.39,120.21,25.25,0,44.48-10.62,57.68-31.86,13.2-21.24,19.8-52.3,19.8-93.17,0-46.27-6.35-78.53-19.06-96.78-13.36-18.98-32.43-28.47-57.19-28.47ZM242.92,54.19c23.3,10.07,41.71,27.3,55.24,51.68,13.52,24.38,20.29,52.55,20.29,84.52,0,47.01-13.32,84.96-39.96,113.86-26.64,28.9-61.63,43.35-104.97,43.35-27.7,0-53.61-8.39-77.72-25.18v-1.09c20.2,13.29,45.54,19.93,76.01,19.93,40.9,0,74.46-13.79,100.7-41.38,26.23-27.59,39.35-62.84,39.35-105.76,0-31.97-5.99-59.92-17.96-83.86-11.98-23.94-28.96-41.82-50.96-53.65v-2.41ZM217.26,94.7l-4.15-2.19c-15.64-7.74-29.98-11.61-43.02-11.61-42.86,0-64.28,37.74-64.28,113.21,0,55.18,13.28,91.75,39.84,109.7l-2.2,2.19c-16.3-10.36-27.9-23.98-34.83-40.84-6.93-16.86-10.39-39.67-10.39-68.43,0-81.02,23.79-121.53,71.37-121.53,21.67,0,37.56,6.5,47.66,19.49Z"/>
      </g>
    </g>
  </g>
</svg>