<?xml version="1.0" encoding="UTF-8"?>
<svg xmlns="http://www.w3.org/2000/svg" viewBox="0 0 297 437">
  <defs>
    <style>
      .cls-1 {
        isolation: isolate;
      }

      .cls-2 {
        fill: #bf8a49;
      }

      .cls-2, .cls-3, .cls-4 {
        stroke-width: 0px;
      }

      .cls-3 {
        fill: #413f6e;
      }

      .cls-4 {
        fill: #231f20;
        mix-blend-mode: multiply;
        opacity: .5;
      }
    </style>
  </defs>
  <g class="cls-1">
    <g id="Capa_2" data-name="Capa 2">
      <g id="Layer_1" data-name="Layer 1">
        <polygon class="cls-4" points="13 49 209 13 297 101 237 421 53 437 13 49"/>
        <polygon class="cls-3" points="0 36 196 0 284 88 224 408 40 424 0 36"/>
        <path class="cls-2" d="M106.45,90.17c6.37-8.05,12.37-14.35,17.99-18.87,5.66-4.56,12.65-7.63,21-9.19,19.5-3.65,35.07,3.77,46.43,22.46,11.47,18.87,19.37,50.89,23.62,95.76,2.75,29.04,3.44,52.98,2.1,71.79-1.33,18.71-6.74,34.17-16.13,46.32-9.26,11.99-20.48,18.1-33.61,18.46-15.5.43-29.17-7.44-41.13-23.46l3.95,39.61c.4,4.02,2.95,6.76,7.66,8.24,4.62,1.49,7.15,4.38,7.58,8.66l.64,6.42c.25,2.5.09,4.01-.46,4.55-.56.53-2.16.8-4.82.8h-66.7c-4.42,0-6.73-1.13-6.96-3.39l-.65-6.27c-.43-4.19,1.1-7.43,4.62-9.74,1.76-1.16,2.52-3,2.26-5.5l-22.98-223.62c-.44-4.31-2.22-7.33-5.3-9.06-2.13-1.17-3.43-2.13-3.89-2.88-.47-.74-.83-2.39-1.09-4.95l-.56-5.4c-.32-3.14-.22-5.05.33-5.74.54-.69,2.13-1.28,4.76-1.77l52.1-9.67c3.42-.64,5.57-.6,6.43.1.86.71,1.46,2.82,1.81,6.34l1,10ZM137.86,120.22c-.75-7.63-2.85-13.07-6.29-16.32-3.43-3.24-6.96-4.55-10.61-3.95-2.66.44-5.39,2.5-8.2,6.17-2.79,3.66-3.99,7.47-3.59,11.46l15.07,151.08c.32,3.21,2.33,6.51,6.04,9.9,3.72,3.41,7.83,5.01,12.32,4.79,7.46-.37,10.66-6.29,9.53-17.79l-14.29-145.34Z"/>
      </g>
    </g>
  </g>
</svg>