<?xml version="1.0" encoding="UTF-8"?>
<svg xmlns="http://www.w3.org/2000/svg" viewBox="0 0 243 417">
  <defs>
    <style>
      .cls-1 {
        isolation: isolate;
      }

      .cls-2 {
        fill: #bf8a49;
      }

      .cls-2, .cls-3, .cls-4 {
        stroke-width: 0px;
      }

      .cls-3 {
        fill: #413f6e;
      }

      .cls-4 {
        fill: #231f20;
        mix-blend-mode: multiply;
        opacity: .5;
      }
    </style>
  </defs>
  <g class="cls-1">
    <g id="Capa_2" data-name="Capa 2">
      <g id="Layer_1" data-name="Layer 1">
        <polygon class="cls-4" points="243 405 13 417 33 13 243 57 243 405"/>
        <polygon class="cls-3" points="230 392 0 404 20 0 230 44 230 392"/>
        <path class="cls-2" d="M77.69,298.56v-15.11c0-14.82,2.4-28.23,7.2-40.24,4.79-12,12.98-22.6,24.56-31.79,14.22-11.26,24.32-19.63,30.27-25.12,5.95-5.48,10.58-11.48,13.89-18,3.3-6.52,4.96-14.23,4.96-23.12v-12c0-10.67-2.48-18.08-7.44-22.23-4.3-3.56-11.09-5.34-20.35-5.34s-16.38,1.78-20.35,5.34c-4.96,3.86-7.44,11.27-7.44,22.23v27.12h-54.59v-27.12c0-24.6,8.26-44.01,24.81-58.24,14.55-12.15,33.74-18.23,57.56-18.23s43,6.08,57.56,18.23c16.54,14.23,24.81,33.64,24.81,58.24v12c0,31.12-10.59,54.98-31.76,71.58-14.23,11.27-24.32,19.64-30.27,25.12-5.95,5.49-10.59,11.49-13.89,18-3.31,6.52-4.96,14.38-4.96,23.56v15.11h-54.59ZM124.59,329.46c-5.46-4.89-11.99-7.34-19.6-7.34s-14.14,2.45-19.6,7.34c-5.46,4.89-8.19,10.75-8.19,17.56s2.73,12.67,8.19,17.56,11.99,7.34,19.6,7.34,14.14-2.45,19.6-7.34c5.46-4.89,8.19-10.74,8.19-17.56s-2.73-12.67-8.19-17.56Z"/>
      </g>
    </g>
  </g>
</svg>