<?xml version="1.0" encoding="UTF-8"?>
<svg xmlns="http://www.w3.org/2000/svg" viewBox="0 0 311 366.5">
  <defs>
    <style>
      .cls-1 {
        isolation: isolate;
      }

      .cls-2 {
        fill: #d9bfa0;
      }

      .cls-2, .cls-3, .cls-4 {
        stroke-width: 0px;
      }

      .cls-3 {
        fill: #413f6e;
      }

      .cls-4 {
        fill: #231f20;
        mix-blend-mode: multiply;
        opacity: .5;
      }
    </style>
  </defs>
  <g class="cls-1">
    <g id="Capa_2" data-name="Capa 2">
      <g id="Layer_1" data-name="Layer 1">
        <polygon class="cls-4" points="13 53 311 13 299 337 46.72 366.5 13 53"/>
        <polygon class="cls-3" points="0 40 298 0 286 324 33.72 353.5 0 40"/>
        <path class="cls-2" d="M189.44,265.75c-14.96,11.83-32.12,17.74-51.48,17.74-12.62,0-24.42-2.62-35.42-7.88-11-5.25-20.61-12.48-28.82-21.68-8.22-9.2-14.74-19.97-19.58-32.33-4.84-12.35-7.26-25.62-7.26-39.82s2.42-27.46,7.26-39.82c4.84-12.35,11.37-23.12,19.58-32.33,8.21-9.2,17.82-16.49,28.82-21.88,11-5.38,22.81-8.08,35.42-8.08s24.42,2.7,35.42,8.08c11,5.39,20.61,12.68,28.82,21.88,8.21,9.2,14.74,19.98,19.58,32.33,4.84,12.36,7.26,25.62,7.26,39.82,0,17.09-3.38,32.72-10.12,46.91l27.72,18.53-36.52,36.27-20.68-17.74ZM137.96,236.58c4.4,0,8.94-1.05,13.64-3.15l-19.36-16.56,24.64-29.57,19.36,13.01c1.46-6.57,2.2-12.74,2.2-18.53,0-7.62-1.03-14.78-3.08-21.49-2.06-6.7-4.92-12.48-8.58-17.35-3.67-4.86-8-8.73-12.98-11.63-4.99-2.89-10.27-4.34-15.84-4.34s-10.86,1.45-15.84,4.34c-4.99,2.9-9.32,6.77-12.98,11.63-3.67,4.87-6.53,10.64-8.58,17.35-2.06,6.7-3.08,13.87-3.08,21.49s1.02,14.78,3.08,21.49c2.05,6.7,4.91,12.49,8.58,17.35,3.66,4.87,7.99,8.74,12.98,11.63,4.98,2.9,10.27,4.34,15.84,4.34Z"/>
      </g>
    </g>
  </g>
</svg>