<?xml version="1.0" encoding="UTF-8"?>
<svg xmlns="http://www.w3.org/2000/svg" viewBox="0 0 313 473">
  <defs>
    <style>
      .cls-1 {
        isolation: isolate;
      }

      .cls-2 {
        fill: #d9bfa0;
      }

      .cls-2, .cls-3, .cls-4 {
        stroke-width: 0px;
      }

      .cls-3 {
        fill: #413f6e;
      }

      .cls-4 {
        fill: #231f20;
        mix-blend-mode: multiply;
        opacity: .5;
      }
    </style>
  </defs>
  <g class="cls-1">
    <g id="Capa_2" data-name="Capa 2">
      <g id="Layer_1" data-name="Layer 1">
        <polygon class="cls-4" points="13 13 313 33 295 417 89 473 13 13"/>
        <polygon class="cls-3" points="0 0 300 20 282 404 76 460 0 0"/>
        <path class="cls-2" d="M113.6,371.53L73.08,90.96c7.19-1.3,14.11-2.43,20.76-3.39,5.49-.79,10.91-1.58,16.27-2.35,5.35-.77,9.16-1.45,11.44-2.05l2.17-.31c9.83-1.42,20.95-2.1,33.36-2.04,12.41.06,24.38,2.23,35.92,6.52,11.54,4.28,21.69,11.22,30.46,20.79,8.76,9.58,14.43,23.31,17.02,41.18l.39,2.72c1.84,14.81.46,27.24-4.14,37.29-4.6,10.05-10.14,18.19-16.62,24.42-7.49,7.43-16.21,13.45-26.17,18.06l63.66,82.05-58.12,8.39-50.25-68.91,15.99,110.75-51.62,7.45Z"/>
      </g>
    </g>
  </g>
</svg>