<?xml version="1.0" encoding="UTF-8"?>
<svg xmlns="http://www.w3.org/2000/svg" viewBox="0 0 308.93 376.7">
  <defs>
    <style>
      .cls-1 {
        isolation: isolate;
      }

      .cls-2 {
        fill: #a69677;
      }

      .cls-2, .cls-3, .cls-4 {
        stroke-width: 0px;
      }

      .cls-3 {
        fill: #413f6e;
      }

      .cls-4 {
        fill: #231f20;
        mix-blend-mode: multiply;
        opacity: .5;
      }
    </style>
  </defs>
  <g class="cls-1">
    <g id="Capa_2" data-name="Capa 2">
      <g id="Layer_1" data-name="Layer 1">
        <polygon class="cls-4" points="308.93 13 299.09 376.7 75.1 346.39 13 27.62 308.93 13"/>
        <polygon class="cls-3" points="295.93 0 286.09 363.7 62.1 333.39 0 14.62 295.93 0"/>
        <path class="cls-2" d="M79.28,230.12l.41-20.43,71.87,6.01.41,30.37c0,6.12,1.37,10.87,4.11,14.28,2.73,3.4,7.25,5.37,13.55,5.9,9.58.8,14.37-5.5,14.37-18.91,0-9.88-2.26-17.83-6.78-23.85-4.52-6.02-11.7-12.62-21.56-19.79l-38.19-28.59c-13.14-9.8-22.59-19.58-28.34-29.36-5.75-9.77-8.62-23.12-8.62-40.06,0-13.17,4.04-24.06,12.11-32.68,8.07-8.61,18.82-14.71,32.24-18.29,13.41-3.58,28.34-4.69,44.76-3.31,58.31,4.88,87.47,32.25,87.47,82.1v4.94l-74.33-6.22v-9.88c0-6.11-1.17-11.44-3.49-15.99-2.33-4.54-6.23-7.05-11.7-7.5-4.93-.41-8.7.51-11.29,2.76-2.6,2.25-3.9,5.49-3.9,9.73,0,9.41,4.24,17.06,12.73,22.94l44.35,31.58c15.87,11.44,28.06,23.46,36.55,36.04,8.48,12.59,12.73,27.94,12.73,46.04,0,23.99-7.94,41.79-23.82,53.39-15.88,11.61-38.06,16.22-66.53,13.84-59.41-4.97-89.11-33.32-89.11-85.06Z"/>
      </g>
    </g>
  </g>
</svg>