<?xml version="1.0" encoding="UTF-8"?>
<svg xmlns="http://www.w3.org/2000/svg" viewBox="0 0 295.44 397">
  <defs>
    <style>
      .cls-1 {
        isolation: isolate;
      }

      .cls-2 {
        fill: #bf8a49;
      }

      .cls-2, .cls-3, .cls-4 {
        stroke-width: 0px;
      }

      .cls-3 {
        fill: #413f6e;
      }

      .cls-4 {
        fill: #231f20;
        mix-blend-mode: multiply;
        opacity: .5;
      }
    </style>
  </defs>
  <g class="cls-1">
    <g id="Capa_2" data-name="Capa 2">
      <g id="Layer_1" data-name="Layer 1">
        <polygon class="cls-4" points="59.44 25 13 298.49 59.44 397 246.7 395.41 295.44 13 59.44 25"/>
        <polygon class="cls-3" points="46.44 12 0 285.49 46.44 384 233.7 382.41 282.44 0 46.44 12"/>
        <path class="cls-2" d="M210.21,226.85c-4.05,21.53-10.1,55.81-11.67,64.16h-19.73c.25-5.71,2.57-20.21,5.96-38.23-13.51,25.93-37.78,43.5-74.37,43.5-29.59,0-65.09-12.3-52.44-79.54l27.38-145.45h20.14l-26.39,140.18c-6.04,32.08-2.46,63.28,38.23,63.28,46.03,0,68.51-27.68,80.34-90.52l21.26-112.93h20.55l-29.28,155.56Z"/>
      </g>
    </g>
  </g>
</svg>