<?xml version="1.0" encoding="UTF-8"?>
<svg id="Capa_2" data-name="Capa 2" xmlns="http://www.w3.org/2000/svg" viewBox="0 0 325.54 426.38">
  <defs>
    <style>
      .cls-1 {
        fill: #413f6e;
      }

      .cls-1, .cls-2 {
        stroke-width: 0px;
      }

      .cls-2 {
        fill: #fbe5bd;
      }
    </style>
  </defs>
  <g id="Layer_1" data-name="Layer 1">
    <polygon class="cls-1" points="0 48.86 45.67 408.62 325.54 426.38 278.8 0 0 48.86"/>
    <path class="cls-2" d="M179.4,373.1l-2.87.3-104.17-232.41c-7.4-16.36-13.06-25.8-16.98-28.33-3.92-2.53-7.8-3.6-11.62-3.2l-.29-2.78,51.32-5.33.29,2.78c-4.57.1-6.61,2.5-6.12,7.2.19,1.86.7,3.8,1.52,5.84l90.89,203.16,46.57-217.36c.61-2.91.83-5.23.65-6.95-.43-4.17-3.23-5.81-8.38-4.9l-.29-2.78,33.36-3.47.29,2.78c-2.32.24-4.71.9-7.2,1.97-2.48,1.07-4.79,4.53-6.93,10.38-2.14,5.85-3.24,8.96-3.3,9.34l-56.74,263.76Z"/>
  </g>
</svg>