<?xml version="1.0" encoding="UTF-8"?>
<svg xmlns="http://www.w3.org/2000/svg" viewBox="0 0 301 397">
  <defs>
    <style>
      .cls-1 {
        isolation: isolate;
      }

      .cls-2 {
        fill: #a69677;
      }

      .cls-2, .cls-3, .cls-4 {
        stroke-width: 0px;
      }

      .cls-3 {
        fill: #413f6e;
      }

      .cls-4 {
        fill: #231f20;
        mix-blend-mode: multiply;
        opacity: .5;
      }
    </style>
  </defs>
  <g class="cls-1">
    <g id="Capa_2" data-name="Capa 2">
      <g id="Layer_1" data-name="Layer 1">
        <polygon class="cls-4" points="13 13 257 13 301 397 13 397 13 13"/>
        <polygon class="cls-3" points="0 0 244 0 288 384 0 384 0 0"/>
        <path class="cls-2" d="M161.11,307.42c-10.76,0-20.14-2.39-28.12-7.16-7.92-4.73-14.32-11.26-19.19-19.56-6.65,12.43-15.93,20.56-27.81,24.24-5.96,1.65-11.96,2.48-17.98,2.48-7.44,0-14.39-1.4-20.82-4.18-6.4-2.77-11.57-7.16-15.51-13.13-7.24-11.31-10.81-25.92-10.81-43.65v-91.86c0-11.58,5.05-20.64,15.1-27.31l4.43-2.57c5.13-2.81,9.73-5.83,13.81-9.05,4.06-3.2,7.57-7.61,10.52-13.19l4.69,139.55c.2,5.97.79,10.91,1.77,14.82.98,3.93,2.82,6.86,5.5,8.78,2.69,1.92,6.55,2.88,11.58,2.86,3.75-.01,6.66-1.74,8.73-5.18,2.06-3.43,3.51-7.7,4.34-12.8.83-5.07,1.24-10.33,1.25-15.79l-4.6-81.01c-.66-11.64,3.98-20.75,13.87-27.45l4.62-2.73c4.93-2.82,9.32-5.83,13.17-9.01,3.84-3.17,7.09-7.57,9.75-13.18l12.75,140.28c.42,4.58,1.18,8.9,2.3,12.94,1.12,4.07,2.88,7.37,5.28,9.89,2.4,2.54,5.72,3.81,9.94,3.79,6.39-.02,11.45-2.4,15.14-7.14,6.41-8.07,10.46-19.93,12.19-35.42,2.97-23.13,3.01-45.35.25-66.71-1.68-12.95-4.66-25.24-8.9-36.88-4.17-11.44-9.96-21.36-17.35-29.82-7.29-8.34-16.5-14.55-27.64-18.69,2.31-5.15,6.26-9.53,11.86-13.15,5.56-3.6,11.67-5.46,18.36-5.58,5.57-.1,11.29,1.22,17.17,3.99,5.91,2.78,11.4,7,16.48,12.68,10.16,11.9,17.31,30.64,21.38,56.77,2.44,15.62,3.6,31.54,3.45,47.77-.16,16.62-1.27,30.96-3.36,42.89-2.12,12.12-5,22.91-8.65,32.3-3.69,9.51-7.85,18.03-12.46,25.54-4.86,9.58-10.97,17.09-18.32,22.47-7.4,5.42-16.79,8.14-28.12,8.14Z"/>
      </g>
    </g>
  </g>
</svg>