<?xml version="1.0" encoding="UTF-8"?>
<svg xmlns="http://www.w3.org/2000/svg" viewBox="0 0 361 373">
  <defs>
    <style>
      .cls-1 {
        isolation: isolate;
      }

      .cls-2 {
        fill: #bf8a49;
      }

      .cls-2, .cls-3, .cls-4 {
        stroke-width: 0px;
      }

      .cls-3 {
        fill: #413f6e;
      }

      .cls-4 {
        fill: #231f20;
        mix-blend-mode: multiply;
        opacity: .5;
      }
    </style>
  </defs>
  <g class="cls-1">
    <g id="Capa_2" data-name="Capa 2">
      <g id="Layer_1" data-name="Layer 1">
        <polygon class="cls-4" points="361 373 13 373 13 13 333 65 361 373"/>
        <polygon class="cls-3" points="348 360 0 360 0 0 320 52 348 360"/>
        <path class="cls-2" d="M112.08,89.74c18.13,0,39.18,21.45,63.12,64.35,44.98-38.34,75.45-57.19,91.42-56.55,7.97,0,13.06,1.95,15.24,5.85v8.78c-1.46,11.7-29.03,36.73-82.71,75.08l1.09,1.95c22.48,42.9,45.33,64.35,68.56,64.35h2.18l17.41-10.72v3.9c1.45,24.71-15.97,41.61-52.24,50.7h-2.18c-23.94,0-47.53-25.35-70.74-76.05l-1.09-1.95c-48.62,45.51-79.82,68.25-93.6,68.25h-19.59c-2.18,0-4-2.27-5.44-6.82l-1.09-5.85c39.89-39.64,72.54-70.2,97.95-91.65-18.14-36.4-33.38-54.6-45.71-54.6h-6.53l-8.71,5.85h-2.18c-2.91,0-4-1.3-3.26-3.9,5.8-27.3,18.5-40.95,38.09-40.95ZM190.44,179.44h2.18c48.6-33.79,75.45-57.19,80.54-70.2-47.89,37.71-75.47,61.11-82.71,70.2Z"/>
      </g>
    </g>
  </g>
</svg>