<?xml version="1.0" encoding="UTF-8"?>
<svg xmlns="http://www.w3.org/2000/svg" viewBox="0 0 309 453">
  <defs>
    <style>
      .cls-1 {
        isolation: isolate;
      }

      .cls-2 {
        fill: #d9bfa0;
      }

      .cls-2, .cls-3, .cls-4 {
        stroke-width: 0px;
      }

      .cls-3 {
        fill: #413f6e;
      }

      .cls-4 {
        fill: #231f20;
        mix-blend-mode: multiply;
        opacity: .5;
      }
    </style>
  </defs>
  <g class="cls-1">
    <g id="Capa_2" data-name="Capa 2">
      <g id="Layer_1" data-name="Layer 1">
        <polygon class="cls-4" points="309 437 13 453 33 13 309 13 309 437"/>
        <polygon class="cls-3" points="296 424 0 440 20 0 296 0 296 424"/>
        <path class="cls-2" d="M130.43,383.62c-7.23-3.52-13.58-7.01-19.05-10.45-8-5.11-13.93-10.83-17.77-17.13-3.86-6.33-5.78-12.69-5.78-19.07,0-9.75,3.85-18.38,11.5-25.86,7.61-7.44,18.02-11.76,31.16-12.98-.02,6.18,1.35,11.97,4.11,17.35,2.75,5.37,7.19,9.14,13.32,11.34,3.55,1.32,7.23,1.78,11.03,1.38,3.41-.36,7.06-1.59,10.95-3.69,6.01-3.44,10.36-8.06,13.06-13.87,2.7-5.81,4.06-11.73,4.1-17.78l.63-42.64c-8.52,11.7-19.65,19.78-33.45,24.23-7.02,2.07-14.08,3.42-21.17,4.03-8.83.75-17.08.19-24.77-1.71-7.74-1.91-14.02-5.46-18.82-10.68-9-10.08-13.53-23.98-13.53-41.67v-99.67c0-13.61,7.15-24.47,21.34-32.52l6.64-3.45c7.07-3.26,13.45-6.83,19.14-10.7,5.66-3.85,10.66-9.13,14.99-15.82l-.52,154.14c-.02,5.88.48,10.68,1.5,14.41,1.02,3.72,3.1,6.4,6.24,8.01,3.13,1.61,7.7,2.2,13.68,1.78,6.08-.43,11.16-2.41,15.26-5.93,4.09-3.51,7.29-7.77,9.63-12.78,2.33-5.01,3.7-10.17,4.1-15.51l.52-84.35c.08-13.02,6.68-23.41,19.72-31.09l6.1-3.3c6.5-3.12,12.36-6.53,17.59-10.23,5.21-3.69,9.82-8.73,13.83-15.14l-1.77,192.74c-.12,12.52-2.37,23.46-6.78,32.86-4.42,9.42-10.13,17.7-17.14,24.85-7.05,7.18-14.79,13.65-23.24,19.38-8.51,5.78-16.95,11.1-25.31,15.96-10.06,5.76-18.85,11.47-26.37,17.1-7.56,5.67-12.46,11.82-14.66,18.45Z"/>
      </g>
    </g>
  </g>
</svg>