<?xml version="1.0" encoding="UTF-8"?>
<svg id="Capa_2" data-name="Capa 2" xmlns="http://www.w3.org/2000/svg" viewBox="0 0 302.65 416.47">
  <defs>
    <style>
      .cls-1 {
        fill: #bf8a49;
      }

      .cls-1, .cls-2 {
        stroke-width: 0px;
      }

      .cls-2 {
        fill: #413f6e;
      }
    </style>
  </defs>
  <g id="Layer_1" data-name="Layer 1">
    <polygon class="cls-2" points="302.65 416.47 25.94 407.28 0 0 302.65 33.69 302.65 416.47"/>
    <path class="cls-1" d="M240.59,72.66l-132.03,247.68,10.68.87L248.51,78.61l3.03,5.75-126.56,237.31,16.84,1.37,13.22.65,6.84.56c9.09.74,17.66-.73,25.72-4.4,8.04-3.66,14.1-8.82,18.21-15.47,5.08-8.25,9.39-17.49,12.93-27.74,9.38,31.67,19.15,55.79,29.34,72.56l-189.66-14.78,121.81-231.13-3.43-.64-22.06-3.13c-21.07-2.56-35.62-1.35-43.55,3.67-7.93,5.02-13.48,16.62-16.63,34.74l-3.83-5.61c1.88-12.57,6.42-22.68,13.6-30.29,4.78-5.17,10.49-8.3,17.11-9.39,6.61-1.08,17.52-.69,32.68,1.17,9.56,1.17,18.35,2.48,26.38,3.91l2.57.54,6.52-12.02c-8.01-1.75-15.93-3.12-23.75-4.1-23.95-2.99-40.49-3.7-49.5-2.08-9.03,1.62-16.79,6.59-23.27,14.92-5,6.53-8.97,15.68-11.93,27.42l-1.53-4.03c-6.42-18.19-15.51-40.59-27.34-67.34l-1.17-2.7,189.48,24.35Z"/>
  </g>
</svg>